<svg width="16" height="16" viewBox="0 0 16 16" fill="none" xmlns="http://www.w3.org/2000/svg">
<path d="M1.33402 5.66669L1.33258 9.33135C1.33172 11.532 1.33129 12.6323 2.01474 13.316C2.6982 13.9998 3.79851 13.9998 5.99914 13.9998L9.99984 13.9999C12.1994 14 13.2992 14 13.9826 13.3168C14.666 12.6335 14.6662 11.5337 14.6666 9.33415L14.6674 5.66669" stroke="#6B7280" stroke-linecap="round" stroke-linejoin="round"/>
<path d="M5.66553 4.33333C5.66553 3.39703 5.66553 2.92887 5.89023 2.59257C5.98751 2.44699 6.11251 2.32199 6.2581 2.22471C6.59439 2 7.06255 2 7.99888 2C8.93515 2 9.40335 2 9.73961 2.22471C9.88521 2.32199 10.0102 2.44699 10.1075 2.59257C10.3322 2.92887 10.3322 3.39703 10.3322 4.33333" stroke="#6B7280" stroke-linecap="round" stroke-linejoin="round"/>
<path d="M13.3321 4.33342L2.66598 4.33331C1.92968 4.33336 1.33259 4.93043 1.33252 5.66673C1.33259 7.13938 2.52678 8.33358 3.99942 8.33371H11.9986C13.4713 8.33365 14.6654 7.13951 14.6655 5.66685C14.6654 4.93053 14.0683 4.33347 13.3321 4.33342Z" stroke="#6B7280" stroke-linecap="round" stroke-linejoin="round"/>
<path d="M6.66553 8.33331V8.99998C6.66553 9.30998 6.66553 9.46498 6.69961 9.59211C6.79208 9.93725 7.06161 10.2068 7.40668 10.2992C7.53388 10.3333 7.68888 10.3333 7.99888 10.3333C8.30888 10.3333 8.46381 10.3333 8.59101 10.2992C8.93608 10.2068 9.20568 9.93725 9.29815 9.59211C9.33221 9.46498 9.33221 9.30998 9.33221 8.99998V8.33331" stroke="#6B7280" stroke-linecap="round" stroke-linejoin="round"/>
</svg>
