<svg width="16" height="16" viewBox="0 0 16 16" fill="none" xmlns="http://www.w3.org/2000/svg">
<path d="M10.6668 1.33331V3.99998M5.3335 1.33331V3.99998" stroke="#6B7280" stroke-linecap="round" stroke-linejoin="round"/>
<path d="M8.66667 2.66669H7.33333C4.81917 2.66669 3.5621 2.66669 2.78105 3.44773C2 4.22879 2 5.48586 2 8.00002V9.33335C2 11.8475 2 13.1046 2.78105 13.8856C3.5621 14.6667 4.81917 14.6667 7.33333 14.6667H8.66667C11.1808 14.6667 12.4379 14.6667 13.2189 13.8856C14 13.1046 14 11.8475 14 9.33335V8.00002C14 5.48586 14 4.22879 13.2189 3.44773C12.4379 2.66669 11.1808 2.66669 8.66667 2.66669Z" stroke="#6B7280" stroke-linecap="round" stroke-linejoin="round"/>
<path d="M2 6.66669H14" stroke="#6B7280" stroke-linecap="round" stroke-linejoin="round"/>
<path d="M7.99716 9.33331H8.00316M7.99716 12H8.00316M10.6608 9.33331H10.6668M5.3335 9.33331H5.33948M5.3335 12H5.33948" stroke="#6B7280" stroke-width="1.33333" stroke-linecap="round" stroke-linejoin="round"/>
</svg>
