<svg width="18" height="18" viewBox="0 0 18 18" fill="none" xmlns="http://www.w3.org/2000/svg">
<path d="M7.875 6.5625V5.0625C7.875 3.82969 7.875 3.21329 7.5345 2.79841C7.47218 2.72246 7.40254 2.65282 7.32659 2.59048C6.91171 2.25 6.29531 2.25 5.0625 2.25C3.82969 2.25 3.21329 2.25 2.79841 2.59048C2.72246 2.65282 2.65282 2.72246 2.59048 2.79841C2.25 3.21329 2.25 3.82969 2.25 5.0625V6.5625C2.25 7.79528 2.25 8.4117 2.59048 8.8266C2.65282 8.90257 2.72246 8.97217 2.79841 9.0345C3.21329 9.375 3.82969 9.375 5.0625 9.375C6.29531 9.375 6.91171 9.375 7.32659 9.0345C7.40254 8.97217 7.47218 8.90257 7.5345 8.8266C7.875 8.4117 7.875 7.79528 7.875 6.5625Z" stroke="white" stroke-width="1.125" stroke-linejoin="round"/>
<path d="M5.8125 11.625H4.3125C3.78916 11.625 3.5275 11.625 3.31457 11.6896C2.83517 11.835 2.46001 12.2101 2.31459 12.6895C2.25 12.9025 2.25 13.1642 2.25 13.6875C2.25 14.2108 2.25 14.4725 2.31459 14.6855C2.46001 15.1649 2.83517 15.54 3.31457 15.6854C3.5275 15.75 3.78916 15.75 4.3125 15.75H5.8125C6.33584 15.75 6.5975 15.75 6.81043 15.6854C7.28983 15.54 7.665 15.1649 7.81043 14.6855C7.875 14.4725 7.875 14.2108 7.875 13.6875C7.875 13.1642 7.875 12.9025 7.81043 12.6895C7.665 12.2101 7.28983 11.835 6.81043 11.6896C6.5975 11.625 6.33584 11.625 5.8125 11.625Z" stroke="white" stroke-width="1.125" stroke-linejoin="round"/>
<path d="M15.75 12.9375V11.4375C15.75 10.2047 15.75 9.5883 15.4095 9.1734C15.3472 9.09743 15.2776 9.02783 15.2016 8.9655C14.7867 8.625 14.1703 8.625 12.9375 8.625C11.7047 8.625 11.0883 8.625 10.6734 8.9655C10.5974 9.02783 10.5278 9.09743 10.4655 9.1734C10.125 9.5883 10.125 10.2047 10.125 11.4375V12.9375C10.125 14.1703 10.125 14.7867 10.4655 15.2016C10.5278 15.2776 10.5974 15.3472 10.6734 15.4095C11.0883 15.75 11.7047 15.75 12.9375 15.75C14.1703 15.75 14.7867 15.75 15.2016 15.4095C15.2776 15.3472 15.3472 15.2776 15.4095 15.2016C15.75 14.7867 15.75 14.1703 15.75 12.9375Z" stroke="white" stroke-width="1.125" stroke-linejoin="round"/>
<path d="M13.6875 2.25H12.1875C11.6642 2.25 11.4025 2.25 11.1896 2.31459C10.7102 2.46001 10.335 2.83517 10.1896 3.31457C10.125 3.5275 10.125 3.78916 10.125 4.3125C10.125 4.83584 10.125 5.0975 10.1896 5.31043C10.335 5.78983 10.7102 6.16499 11.1896 6.31041C11.4025 6.375 11.6642 6.375 12.1875 6.375H13.6875C14.2108 6.375 14.4725 6.375 14.6855 6.31041C15.1649 6.16499 15.54 5.78983 15.6854 5.31043C15.75 5.0975 15.75 4.83584 15.75 4.3125C15.75 3.78916 15.75 3.5275 15.6854 3.31457C15.54 2.83517 15.1649 2.46001 14.6855 2.31459C14.4725 2.25 14.2108 2.25 13.6875 2.25Z" stroke="white" stroke-width="1.125" stroke-linejoin="round"/>
</svg>
