<svg width="18" height="18" viewBox="0 0 18 18" fill="none" xmlns="http://www.w3.org/2000/svg">
<path d="M13.5435 6.40234L12.7935 5.94215C12.0415 5.48072 11.6655 5.25 11.25 5.25C10.8345 5.25 10.4585 5.48072 9.7065 5.94215L8.9565 6.40234C8.24513 6.83886 7.8894 7.05712 7.6947 7.40878C7.5 7.76047 7.5 8.18467 7.5 9.03315V13.4321C7.5 14.8783 7.5 15.6014 7.93935 16.0507C8.3787 16.5 9.0858 16.5 10.5 16.5H12C13.4142 16.5 14.1213 16.5 14.5606 16.0507C15 15.6014 15 14.8783 15 13.4321V9.03315C15 8.18467 15 7.76047 14.8053 7.40878C14.6106 7.05712 14.2549 6.83886 13.5435 6.40234Z" stroke="white" stroke-width="1.125" stroke-linecap="round" stroke-linejoin="round"/>
<path d="M10.5 5.33107C10.0209 4.87132 9.73433 4.62964 9.37305 4.53883C8.95305 4.43326 8.51183 4.55166 7.62938 4.78845L6.74931 5.0246C5.91452 5.2486 5.49712 5.36061 5.20715 5.63722C4.91718 5.91385 4.80482 6.30721 4.58009 7.09393L3.41495 11.1728C3.03188 12.5139 2.84034 13.1844 3.16547 13.7127C3.44502 14.1669 4.56263 14.7254 5.625 15" stroke="white" stroke-width="1.125" stroke-linecap="round" stroke-linejoin="round"/>
<path d="M10.871 7.5C11.502 7.08043 12.0621 6.40718 12.4101 5.5699C13.1286 3.84121 12.6708 2.06793 11.3877 1.60915C10.1045 1.15037 8.48183 2.17983 7.7634 3.90851C7.64325 4.1975 7.55602 4.48774 7.5 4.77287" stroke="white" stroke-width="1.125" stroke-linecap="round"/>
</svg>
