<svg width="18" height="18" viewBox="0 0 18 18" fill="none" xmlns="http://www.w3.org/2000/svg">
<path d="M1.50071 6.375L1.49909 10.4977C1.49812 12.9734 1.49764 14.2113 2.26652 14.9805C3.03541 15.7497 4.27327 15.7497 6.74897 15.7498L11.2498 15.7498C13.7243 15.7499 14.9615 15.75 15.7303 14.9813C16.4992 14.2126 16.4995 12.9754 16.4999 10.5009L16.5007 6.375" stroke="white" stroke-width="1.125" stroke-linecap="round" stroke-linejoin="round"/>
<path d="M6.37402 4.875C6.37402 3.82166 6.37402 3.29498 6.62682 2.91664C6.73625 2.75286 6.87688 2.61223 7.04067 2.50279C7.419 2.25 7.94567 2.25 8.99905 2.25C10.0523 2.25 10.5791 2.25 10.9574 2.50279C11.1212 2.61223 11.2618 2.75286 11.3712 2.91664C11.624 3.29498 11.624 3.82166 11.624 4.875" stroke="white" stroke-width="1.125" stroke-linecap="round" stroke-linejoin="round"/>
<path d="M14.9985 4.87512L2.99917 4.875C2.17083 4.87505 1.4991 5.54676 1.49902 6.3751C1.4991 8.03183 2.84257 9.3753 4.49929 9.37545H13.4984C15.1551 9.37538 16.4985 8.03198 16.4986 6.37523C16.4985 5.54687 15.8268 4.87517 14.9985 4.87512Z" stroke="white" stroke-width="1.125" stroke-linecap="round" stroke-linejoin="round"/>
<path d="M7.49902 9.375V10.125C7.49902 10.4738 7.49902 10.6481 7.53737 10.7911C7.6414 11.1794 7.94462 11.4827 8.33282 11.5867C8.47592 11.625 8.6503 11.625 8.99905 11.625C9.3478 11.625 9.5221 11.625 9.6652 11.5867C10.0534 11.4827 10.3567 11.1794 10.4607 10.7911C10.499 10.6481 10.499 10.4738 10.499 10.125V9.375" stroke="white" stroke-width="1.125" stroke-linecap="round" stroke-linejoin="round"/>
</svg>
